####
#
# OBJ File Generated by Meshlab
#
####
# Object collision.obj
#
# Vertices: 64
# Faces: 124
#
####
vn 0.788905 0.183542 0.006429
v 0.026289 -0.008075 0.030955
vn -0.797922 -0.116395 -0.076629
v -0.039241 -0.022854 0.028851
vn -0.792762 -0.116837 0.118225
v -0.039241 -0.022854 0.036240
vn 0.170702 -0.789282 0.063203
v -0.000139 -0.050346 0.033059
vn 0.133768 0.245211 -0.760314
v -0.000139 -0.001732 -0.000751
vn -0.087615 0.542060 0.595479
v -0.009644 0.005671 0.056318
vn 0.134810 -0.285782 0.745825
v -0.000139 -0.027085 0.062662
vn 0.153955 -0.469332 -0.641970
v -0.000139 -0.038719 0.003482
vn -0.185285 0.779829 -0.116775
v -0.013872 0.016239 0.024618
vn -0.495740 0.083699 -0.635088
v -0.027612 -0.011246 0.003482
vn 0.740318 -0.285963 -0.162034
v 0.024172 -0.030257 0.022507
vn -0.477276 -0.565441 -0.329521
v -0.025495 -0.040825 0.014046
vn -0.453885 -0.361881 0.564916
v -0.026554 -0.031316 0.054208
vn -0.713847 0.331913 0.190672
v -0.036066 -0.001732 0.039409
vn 0.499502 0.591021 0.239358
v 0.014660 0.007783 0.042572
vn 0.632367 -0.105211 0.495119
v 0.017829 -0.021802 0.053149
vn 0.510778 0.344332 -0.525967
v 0.015718 -0.002785 0.006651
vn -0.321724 -0.701026 0.247297
v -0.019157 -0.047168 0.040468
vn 0.374607 0.688336 -0.204848
v 0.008316 0.013067 0.019338
vn -0.429134 0.037000 0.685985
v -0.024443 -0.013359 0.059494
vn 0.233072 0.170279 0.756824
v 0.001978 -0.010187 0.063720
vn 0.233507 -0.601903 0.489170
v 0.004089 -0.041890 0.051033
vn -0.296114 0.583912 -0.476932
v -0.019157 0.007777 0.008761
vn -0.103047 0.760927 0.257820
v -0.009644 0.016239 0.040468
vn -0.155969 -0.177703 -0.774723
v -0.015988 -0.028145 -0.000751
vn 0.323318 -0.142901 -0.728797
v 0.011485 -0.022861 0.001365
vn -0.697699 0.364082 -0.191729
v -0.035007 -0.000679 0.021455
vn 0.658561 -0.448646 0.145306
v 0.021004 -0.036600 0.035176
vn 0.470653 -0.598517 -0.276340
v 0.013602 -0.041890 0.017221
vn -0.132565 -0.768535 -0.218815
v -0.011761 -0.049280 0.019338
vn -0.438326 0.600598 0.321329
v -0.025495 0.008836 0.043636
vn -0.609242 -0.517063 0.132551
v -0.031838 -0.038713 0.035176
vn -0.686512 -0.163292 -0.397664
v -0.033949 -0.026032 0.011936
vn 0.532646 0.301164 0.530743
v 0.015718 -0.001732 0.052085
vn 0.178282 0.596946 -0.517659
v 0.000920 0.009895 0.007709
vn -0.149725 -0.483414 0.632450
v -0.012813 -0.036593 0.057370
vn 0.744384 0.100063 -0.303281
v 0.024172 -0.011246 0.015105
vn 0.633454 0.483671 -0.144562
v 0.019946 0.003552 0.022507
vn -0.658348 0.104102 0.460262
v -0.033949 -0.012307 0.051033
vn -0.147502 -0.081524 0.792273
v -0.011761 -0.017577 0.064778
vn 0.216593 0.573421 0.529505
v 0.003037 0.007783 0.053149
vn -0.483053 0.650198 0.001601
v -0.026554 0.010955 0.029903
vn 0.177064 0.785669 0.086443
v -0.000139 0.017298 0.034123
vn -0.168169 0.320937 -0.724444
v -0.013872 0.000381 0.000307
vn 0.786676 -0.099007 0.165646
v 0.026289 -0.020749 0.036234
vn 0.575888 -0.294395 -0.487631
v 0.017829 -0.029204 0.008761
vn -0.212096 -0.560709 -0.544721
v -0.017041 -0.040825 0.006651
vn -0.410105 0.380719 0.585634
v -0.023385 -0.001732 0.056318
vn 0.718179 0.269233 0.260446
v 0.023114 -0.003844 0.041520
vn 0.168387 -0.738163 -0.287855
v -0.000139 -0.048227 0.017221
vn -0.779541 0.119394 -0.184827
v -0.038182 -0.010187 0.022507
vn 0.487816 -0.413170 0.497419
v 0.012543 -0.034488 0.052085
vn 0.442798 -0.658070 0.164237
v 0.012543 -0.044003 0.037292
vn -0.102188 0.260383 0.760170
v -0.010703 -0.007015 0.063720
vn -0.041065 -0.759334 0.278973
v -0.008586 -0.049287 0.041520
vn -0.695167 -0.385102 -0.156652
v -0.035007 -0.033429 0.022507
vn -0.433151 -0.678098 -0.093079
v -0.024443 -0.045056 0.024618
vn -0.483792 -0.294650 -0.578987
v -0.026554 -0.031316 0.005593
vn -0.671909 -0.257505 0.371926
v -0.035007 -0.027085 0.046805
vn -0.016347 0.740744 -0.327308
v -0.005417 0.014126 0.014046
vn 0.411401 -0.112948 0.688543
v 0.009374 -0.021802 0.060545
vn -0.565236 0.304609 -0.493783
v -0.028670 -0.002791 0.007709
vn -0.466518 0.602346 -0.275027
v -0.025495 0.008836 0.017221
vn 0.493095 0.054423 -0.640309
v 0.015718 -0.013359 0.003482
# 64 vertices, 0 vertices normals

f 37//37 46//46 64//64
f 25//25 5//5 26//26
f 8//8 25//25 26//26
f 11//11 28//28 29//29
f 6//6 24//24 31//31
f 18//18 13//13 32//32
f 17//17 5//5 35//35
f 19//19 17//17 35//35
f 13//13 18//18 36//36
f 22//22 7//7 36//36
f 1//1 11//11 37//37
f 19//19 15//15 38//38
f 17//17 19//19 38//38
f 1//1 37//37 38//38
f 37//37 17//17 38//38
f 14//14 3//3 39//39
f 13//13 20//20 39//39
f 20//20 13//13 40//40
f 7//7 21//21 40//40
f 13//13 36//36 40//40
f 36//36 7//7 40//40
f 6//6 21//21 41//41
f 24//24 6//6 41//41
f 34//34 15//15 41//41
f 21//21 34//34 41//41
f 24//24 9//9 42//42
f 27//27 14//14 42//42
f 14//14 31//31 42//42
f 31//31 24//24 42//42
f 15//15 19//19 43//43
f 9//9 24//24 43//43
f 24//24 41//41 43//43
f 41//41 15//15 43//43
f 5//5 25//25 44//44
f 25//25 10//10 44//44
f 35//35 5//5 44//44
f 23//23 35//35 44//44
f 11//11 1//1 45//45
f 28//28 11//11 45//45
f 16//16 28//28 45//45
f 8//8 26//26 46//46
f 29//29 8//8 46//46
f 11//11 29//29 46//46
f 37//37 11//11 46//46
f 25//25 8//8 47//47
f 30//30 12//12 47//47
f 6//6 31//31 48//48
f 31//31 14//14 48//48
f 14//14 39//39 48//48
f 39//39 20//20 48//48
f 15//15 34//34 49//49
f 34//34 16//16 49//49
f 1//1 38//38 49//49
f 38//38 15//15 49//49
f 45//45 1//1 49//49
f 16//16 45//45 49//49
f 29//29 4//4 50//50
f 8//8 29//29 50//50
f 4//4 30//30 50//50
f 47//47 8//8 50//50
f 30//30 47//47 50//50
f 2//2 3//3 51//51
f 3//3 14//14 51//51
f 14//14 27//27 51//51
f 10//10 33//33 51//51
f 33//33 2//2 51//51
f 7//7 22//22 52//52
f 28//28 16//16 52//52
f 28//28 52//52 53//53
f 22//22 4//4 53//53
f 4//4 29//29 53//53
f 29//29 28//28 53//53
f 52//52 22//22 53//53
f 21//21 6//6 54//54
f 20//20 40//40 54//54
f 40//40 21//21 54//54
f 6//6 48//48 54//54
f 48//48 20//20 54//54
f 4//4 22//22 55//55
f 30//30 4//4 55//55
f 18//18 30//30 55//55
f 36//36 18//18 55//55
f 22//22 36//36 55//55
f 3//3 2//2 56//56
f 32//32 3//3 56//56
f 33//33 12//12 56//56
f 2//2 33//33 56//56
f 12//12 30//30 57//57
f 30//30 18//18 57//57
f 18//18 32//32 57//57
f 32//32 56//56 57//57
f 56//56 12//12 57//57
f 10//10 25//25 58//58
f 33//33 10//10 58//58
f 12//12 33//33 58//58
f 25//25 47//47 58//58
f 47//47 12//12 58//58
f 3//3 32//32 59//59
f 32//32 13//13 59//59
f 39//39 3//3 59//59
f 13//13 39//39 59//59
f 23//23 9//9 60//60
f 19//19 35//35 60//60
f 35//35 23//23 60//60
f 9//9 43//43 60//60
f 43//43 19//19 60//60
f 21//21 7//7 61//61
f 16//16 34//34 61//61
f 34//34 21//21 61//61
f 7//7 52//52 61//61
f 52//52 16//16 61//61
f 44//44 10//10 62//62
f 23//23 44//44 62//62
f 10//10 51//51 62//62
f 51//51 27//27 62//62
f 9//9 23//23 63//63
f 42//42 9//9 63//63
f 27//27 42//42 63//63
f 23//23 62//62 63//63
f 62//62 27//27 63//63
f 5//5 17//17 64//64
f 26//26 5//5 64//64
f 17//17 37//37 64//64
f 46//46 26//26 64//64
# 124 faces, 0 coords texture

# End of File
